<svg width="105" height="26" viewBox="0 0 105 26" fill="none" xmlns="http://www.w3.org/2000/svg">
<path d="M14.7973 12.3007C14.8081 11.466 15.0298 10.6476 15.4418 9.92169C15.8538 9.19573 16.4428 8.58579 17.1539 8.14862C16.7021 7.50346 16.1062 6.97252 15.4134 6.59797C14.7205 6.22341 13.9499 6.01557 13.1627 5.99094C11.4835 5.81468 9.85552 6.99577 8.99981 6.99577C8.12754 6.99577 6.81004 6.00844 5.39131 6.03763C4.47364 6.06728 3.57929 6.33413 2.79541 6.81219C2.01154 7.29025 1.36486 7.96321 0.918393 8.7655C-1.01561 12.1139 0.426982 17.035 2.27959 19.7416C3.20649 21.0669 4.28977 22.5474 5.70722 22.4949C7.09428 22.4374 7.61232 21.6104 9.28662 21.6104C10.9454 21.6104 11.4314 22.4949 12.8776 22.4615C14.366 22.4373 15.3038 21.1303 16.1981 19.7924C16.8641 18.848 17.3766 17.8043 17.7166 16.6999C16.8518 16.3341 16.1139 15.7219 15.5948 14.9396C15.0757 14.1574 14.7983 13.2395 14.7973 12.3007Z" fill="white"/>
<path d="M12.0656 4.2109C12.8772 3.23669 13.277 1.98451 13.1802 0.720276C11.9403 0.850496 10.7951 1.44306 9.97259 2.37989C9.57045 2.83755 9.26245 3.36999 9.0662 3.94676C8.86996 4.52353 8.78931 5.13332 8.82888 5.74128C9.44902 5.74766 10.0625 5.61325 10.6232 5.34816C11.1838 5.08307 11.6771 4.69422 12.0656 4.2109Z" fill="white"/>
<path d="M37.3307 19.1397H32.5973L31.4606 22.4961H29.4557L33.9391 10.0781H36.0221L40.5055 22.4961H38.4664L37.3307 19.1397ZM33.0875 17.5908H36.8395L34.9899 12.1436H34.9381L33.0875 17.5908Z" fill="white"/>
<path d="M50.1881 17.9697C50.1881 20.7832 48.6823 22.5908 46.4098 22.5908C45.8342 22.6209 45.2617 22.4883 44.7579 22.2082C44.2541 21.9281 43.8394 21.5117 43.5612 21.0068H43.5182V25.4912H41.6598V13.4424H43.4586V14.9483H43.4928C43.7838 14.4458 44.2055 14.0316 44.7131 13.7498C45.2208 13.4679 45.7953 13.3289 46.3756 13.3477C48.6735 13.3477 50.1881 15.1641 50.1881 17.9697ZM48.278 17.9697C48.278 16.1367 47.3307 14.9317 45.8854 14.9317C44.4655 14.9317 43.5104 16.1621 43.5104 17.9697C43.5104 19.794 44.4655 21.0156 45.8854 21.0156C47.3307 21.0156 48.278 19.8194 48.278 17.9697Z" fill="white"/>
<path d="M60.153 17.9697C60.153 20.7832 58.6471 22.5908 56.3747 22.5908C55.799 22.6209 55.2265 22.4883 54.7227 22.2082C54.2189 21.9281 53.8042 21.5117 53.526 21.0068H53.483V25.4912H51.6246V13.4424H53.4235V14.9482H53.4576C53.7486 14.4458 54.1703 14.0316 54.678 13.7497C55.1856 13.4679 55.7601 13.3289 56.3405 13.3477C58.6383 13.3477 60.153 15.1641 60.153 17.9697ZM58.2428 17.9697C58.2428 16.1367 57.2956 14.9316 55.8502 14.9316C54.4303 14.9316 53.4752 16.1621 53.4752 17.9697C53.4752 19.794 54.4303 21.0156 55.8502 21.0156C57.2956 21.0156 58.2428 19.8193 58.2428 17.9697H58.2428Z" fill="white"/>
<path d="M66.7389 19.0361C66.8766 20.2676 68.0729 21.0761 69.7077 21.0761C71.2741 21.0761 72.401 20.2675 72.401 19.1572C72.401 18.1933 71.7213 17.6162 70.112 17.2207L68.5026 16.833C66.2223 16.2822 65.1637 15.2158 65.1637 13.4853C65.1637 11.3427 67.0309 9.87105 69.6823 9.87105C72.3063 9.87105 74.1051 11.3427 74.1657 13.4853H72.2897C72.1774 12.246 71.153 11.498 69.6559 11.498C68.1588 11.498 67.1344 12.2548 67.1344 13.3564C67.1344 14.2343 67.7887 14.7509 69.3893 15.1464L70.7574 15.4823C73.3053 16.0849 74.3639 17.1083 74.3639 18.9247C74.3639 21.248 72.5133 22.703 69.5699 22.703C66.816 22.703 64.9567 21.2821 64.8365 19.036L66.7389 19.0361Z" fill="white"/>
<path d="M78.3746 11.2998V13.4424H80.0963V14.9141H78.3746V19.9053C78.3746 20.6807 78.7194 21.042 79.4762 21.042C79.6806 21.0384 79.8846 21.0241 80.0875 20.999V22.4619C79.7472 22.5255 79.4014 22.5543 79.0553 22.5478C77.2223 22.5478 76.5074 21.8593 76.5074 20.1035V14.9141H75.191V13.4424H76.5074V11.2998H78.3746Z" fill="white"/>
<path d="M81.0934 17.9697C81.0934 15.1211 82.7711 13.3311 85.3873 13.3311C88.0123 13.3311 89.6823 15.1211 89.6823 17.9697C89.6823 20.8262 88.0211 22.6084 85.3873 22.6084C82.7545 22.6084 81.0934 20.8262 81.0934 17.9697ZM87.7887 17.9697C87.7887 16.0156 86.8932 14.8623 85.3873 14.8623C83.8815 14.8623 82.9869 16.0244 82.9869 17.9697C82.9869 19.9317 83.8815 21.0762 85.3873 21.0762C86.8932 21.0762 87.7887 19.9317 87.7887 17.9697H87.7887Z" fill="white"/>
<path d="M91.2145 13.4424H92.9869V14.9834H93.0299C93.1499 14.5021 93.4318 14.0768 93.8284 13.7789C94.225 13.481 94.712 13.3287 95.2077 13.3476C95.4218 13.3469 95.6354 13.3702 95.8444 13.417V15.1553C95.574 15.0726 95.292 15.0347 95.0094 15.043C94.7394 15.032 94.4703 15.0796 94.2204 15.1825C93.9706 15.2854 93.746 15.4411 93.562 15.639C93.378 15.8369 93.239 16.0723 93.1546 16.3289C93.0702 16.5856 93.0423 16.8575 93.0729 17.126V22.4961H91.2145L91.2145 13.4424Z" fill="white"/>
<path d="M104.413 19.8369C104.163 21.4805 102.562 22.6084 100.514 22.6084C97.8805 22.6084 96.2457 20.8437 96.2457 18.0127C96.2457 15.1729 97.8893 13.3311 100.436 13.3311C102.941 13.3311 104.516 15.0518 104.516 17.7969V18.4336H98.1217V18.5459C98.0922 18.8791 98.1339 19.2148 98.2441 19.5306C98.3543 19.8464 98.5304 20.1352 98.7607 20.3778C98.9911 20.6203 99.2704 20.8111 99.5802 20.9374C99.8899 21.0637 100.223 21.1226 100.557 21.1103C100.996 21.1515 101.437 21.0498 101.814 20.8203C102.191 20.5909 102.483 20.246 102.648 19.8369L104.413 19.8369ZM98.1305 17.1348H102.657C102.674 16.8352 102.628 16.5354 102.523 16.2541C102.419 15.9729 102.257 15.7164 102.049 15.5006C101.84 15.2849 101.589 15.1145 101.312 15.0003C101.034 14.8861 100.736 14.8305 100.436 14.8369C100.134 14.8351 99.8335 14.8933 99.5535 15.008C99.2734 15.1227 99.0189 15.2918 98.8045 15.5054C98.5902 15.7191 98.4203 15.973 98.3046 16.2527C98.1889 16.5323 98.1297 16.8321 98.1305 17.1348V17.1348Z" fill="white"/>
<path d="M32.8546 0.731014C33.2442 0.703055 33.6352 0.761915 33.9993 0.903348C34.3634 1.04478 34.6916 1.26526 34.9602 1.54889C35.2288 1.83251 35.4311 2.17221 35.5525 2.54348C35.6739 2.91475 35.7114 3.30834 35.6622 3.69585C35.6622 5.6021 34.632 6.69785 32.8546 6.69785H30.6993V0.731014H32.8546ZM31.6261 5.85401H32.7511C33.0295 5.87066 33.3081 5.82501 33.5666 5.72039C33.8252 5.61578 34.0571 5.45483 34.2456 5.24927C34.4341 5.0437 34.5744 4.79869 34.6563 4.53207C34.7381 4.26545 34.7595 3.98394 34.7189 3.70801C34.7566 3.43318 34.733 3.15341 34.6499 2.88875C34.5668 2.62408 34.4262 2.38108 34.2381 2.17715C34.05 1.97322 33.8192 1.81341 33.5621 1.70917C33.305 1.60494 33.0281 1.55885 32.7511 1.57422H31.6261V5.85401Z" fill="white"/>
<path d="M36.7091 4.44435C36.6808 4.14843 36.7147 3.84986 36.8085 3.56779C36.9024 3.28572 37.0541 3.02638 37.2541 2.8064C37.454 2.58642 37.6977 2.41065 37.9696 2.29038C38.2414 2.1701 38.5354 2.10797 38.8327 2.10797C39.1299 2.10797 39.4239 2.1701 39.6958 2.29038C39.9676 2.41065 40.2113 2.58642 40.4113 2.8064C40.6112 3.02638 40.763 3.28572 40.8568 3.56779C40.9507 3.84986 40.9845 4.14843 40.9562 4.44435C40.9851 4.74057 40.9516 5.03955 40.858 5.32208C40.7644 5.6046 40.6128 5.86442 40.4128 6.08484C40.2128 6.30525 39.9689 6.48138 39.6968 6.60192C39.4246 6.72245 39.1303 6.78472 38.8327 6.78472C38.5351 6.78472 38.2407 6.72245 37.9686 6.60192C37.6965 6.48138 37.4526 6.30525 37.2526 6.08484C37.0526 5.86442 36.9009 5.6046 36.8073 5.32208C36.7137 5.03955 36.6803 4.74057 36.7091 4.44435ZM40.0421 4.44435C40.0421 3.46828 39.6037 2.89748 38.8341 2.89748C38.0617 2.89748 37.6271 3.46828 37.6271 4.44436C37.6271 5.42825 38.0617 5.99465 38.8341 5.99465C39.6037 5.99464 40.0422 5.42433 40.0422 4.44435H40.0421Z" fill="white"/>
<path d="M46.6017 6.69775H45.6798L44.7491 3.38134H44.6788L43.7521 6.69775H42.839L41.5978 2.19482H42.4991L43.3058 5.63082H43.3722L44.298 2.19482H45.1505L46.0763 5.63082H46.1466L46.9493 2.19482H47.838L46.6017 6.69775Z" fill="white"/>
<path d="M48.882 2.19484H49.7374V2.91017H49.8038C49.9165 2.65325 50.1065 2.43788 50.3474 2.29407C50.5882 2.15026 50.868 2.08519 51.1476 2.10792C51.3667 2.09144 51.5867 2.12448 51.7913 2.20458C51.9959 2.28467 52.1798 2.40978 52.3295 2.57062C52.4792 2.73146 52.5908 2.92392 52.656 3.13375C52.7212 3.34357 52.7383 3.56537 52.7062 3.78272V6.69772H51.8175V4.00588C51.8175 3.28225 51.5031 2.92238 50.8458 2.92238C50.6971 2.91545 50.5486 2.94077 50.4105 2.9966C50.2725 3.05243 50.1481 3.13745 50.046 3.24584C49.9439 3.35422 49.8664 3.4834 49.8188 3.62454C49.7713 3.76567 49.7549 3.91541 49.7706 4.06349V6.69777H48.882L48.882 2.19484Z" fill="white"/>
<path d="M54.1222 0.437012H55.0109V6.69775H54.1222V0.437012Z" fill="white"/>
<path d="M56.2462 4.44436C56.2179 4.14842 56.2518 3.84984 56.3457 3.56775C56.4395 3.28567 56.5913 3.02632 56.7913 2.80634C56.9912 2.58635 57.235 2.41058 57.5068 2.2903C57.7787 2.17003 58.0727 2.10789 58.37 2.10789C58.6673 2.10789 58.9613 2.17003 59.2332 2.2903C59.505 2.41058 59.7488 2.58635 59.9487 2.80634C60.1487 3.02632 60.3005 3.28567 60.3943 3.56775C60.4882 3.84984 60.5221 4.14842 60.4938 4.44436C60.5226 4.74059 60.4891 5.03958 60.3955 5.3221C60.3019 5.60462 60.1502 5.86444 59.9502 6.08484C59.7502 6.30525 59.5062 6.48138 59.2341 6.60191C58.962 6.72244 58.6676 6.7847 58.37 6.7847C58.0724 6.7847 57.778 6.72244 57.5059 6.60191C57.2338 6.48138 56.9899 6.30525 56.7898 6.08484C56.5898 5.86444 56.4381 5.60462 56.3445 5.3221C56.2509 5.03958 56.2174 4.74059 56.2462 4.44436ZM59.5792 4.44436C59.5792 3.46829 59.1407 2.89749 58.3712 2.89749C57.5988 2.89749 57.1642 3.46829 57.1642 4.44437C57.1642 5.42826 57.5988 5.99466 58.3712 5.99466C59.1408 5.99465 59.5792 5.42434 59.5792 4.44436H59.5792Z" fill="white"/>
<path d="M61.4293 5.42433C61.4293 4.61378 62.0328 4.1465 63.1041 4.08009L64.3239 4.00978V3.62111C64.3239 3.14552 64.0094 2.87697 63.402 2.87697C62.9059 2.87697 62.5621 3.0591 62.4635 3.37746H61.6031C61.694 2.60402 62.4215 2.10793 63.443 2.10793C64.5719 2.10793 65.2086 2.66993 65.2086 3.62111V6.69777H64.3531V6.06496H64.2828C64.1401 6.29195 63.9397 6.477 63.7021 6.60121C63.4645 6.72542 63.1981 6.78434 62.9303 6.77196C62.7413 6.79162 62.5502 6.77145 62.3694 6.71275C62.1887 6.65405 62.0222 6.55813 61.8808 6.43116C61.7394 6.30419 61.6262 6.14899 61.5484 5.97558C61.4706 5.80216 61.4301 5.61438 61.4293 5.42433ZM64.3239 5.03956V4.6631L63.2242 4.73341C62.6041 4.77491 62.3229 4.98585 62.3229 5.38282C62.3229 5.78809 62.6744 6.02393 63.1579 6.02393C63.2995 6.03826 63.4426 6.02396 63.5786 5.98187C63.7146 5.93978 63.8408 5.87076 63.9495 5.77892C64.0583 5.68708 64.1475 5.57429 64.2118 5.44728C64.2761 5.32026 64.3142 5.1816 64.3239 5.03956Z" fill="white"/>
<path d="M66.3766 4.44435C66.3766 3.0215 67.108 2.12013 68.2457 2.12013C68.5271 2.10716 68.8064 2.17457 69.051 2.31446C69.2955 2.45436 69.4951 2.66096 69.6266 2.91013H69.693V0.437012H70.5817V6.69775H69.7301V5.98632H69.6598C69.5182 6.23381 69.3116 6.43785 69.0623 6.57633C68.8131 6.71481 68.5307 6.78246 68.2457 6.77196C67.1002 6.77201 66.3766 5.87062 66.3766 4.44435ZM67.2946 4.44435C67.2946 5.39943 67.7448 5.97414 68.4977 5.97414C69.2467 5.97414 69.7096 5.39114 69.7096 4.44826C69.7096 3.50978 69.2419 2.91847 68.4977 2.91847C67.7496 2.91847 67.2946 3.49708 67.2946 4.44435H67.2946Z" fill="white"/>
<path d="M74.2585 4.44435C74.2301 4.14843 74.264 3.84986 74.3578 3.56779C74.4517 3.28572 74.6034 3.02638 74.8034 2.8064C75.0033 2.58642 75.247 2.41065 75.5189 2.29038C75.7907 2.1701 76.0847 2.10797 76.382 2.10797C76.6793 2.10797 76.9732 2.1701 77.2451 2.29038C77.517 2.41065 77.7607 2.58642 77.9606 2.8064C78.1605 3.02638 78.3123 3.28572 78.4061 3.56779C78.5 3.84986 78.5338 4.14843 78.5055 4.44435C78.5344 4.74057 78.5009 5.03955 78.4073 5.32208C78.3137 5.6046 78.1621 5.86442 77.9621 6.08484C77.7621 6.30525 77.5182 6.48138 77.2461 6.60192C76.9739 6.72245 76.6796 6.78472 76.382 6.78472C76.0844 6.78472 75.79 6.72245 75.5179 6.60192C75.2458 6.48138 75.0019 6.30525 74.8019 6.08484C74.6019 5.86442 74.4502 5.6046 74.3566 5.32208C74.2631 5.03955 74.2296 4.74057 74.2585 4.44435ZM77.5915 4.44435C77.5915 3.46828 77.153 2.89748 76.3835 2.89748C75.611 2.89748 75.1765 3.46828 75.1765 4.44436C75.1765 5.42825 75.611 5.99465 76.3835 5.99465C77.153 5.99464 77.5915 5.42433 77.5915 4.44435Z" fill="white"/>
<path d="M79.6979 2.19484H80.5533V2.91017H80.6198C80.7324 2.65325 80.9224 2.43788 81.1633 2.29407C81.4042 2.15026 81.6839 2.08519 81.9635 2.10792C82.1826 2.09144 82.4026 2.12448 82.6072 2.20458C82.8118 2.28467 82.9958 2.40978 83.1454 2.57062C83.2951 2.73146 83.4067 2.92392 83.4719 3.13375C83.5371 3.34357 83.5543 3.56537 83.5221 3.78272V6.69772H82.6334V4.00588C82.6334 3.28225 82.319 2.92238 81.6618 2.92238C81.513 2.91545 81.3645 2.94077 81.2264 2.9966C81.0884 3.05243 80.964 3.13745 80.8619 3.24584C80.7598 3.35422 80.6823 3.4834 80.6348 3.62454C80.5872 3.76567 80.5708 3.91541 80.5865 4.06349V6.69777H79.6979V2.19484Z" fill="white"/>
<path d="M88.5436 1.07375V2.21535H89.5192V2.96389H88.5436V5.27931C88.5436 5.751 88.7379 5.95753 89.1803 5.95753C89.2936 5.95717 89.4067 5.95032 89.5192 5.93703V6.67726C89.3596 6.70581 89.1979 6.72099 89.0358 6.72266C88.0475 6.72266 87.6539 6.37501 87.6539 5.50685V2.96385H86.9391V2.21531H87.6539V1.07375H88.5436Z" fill="white"/>
<path d="M90.733 0.437012H91.6139V2.91846H91.6842C91.8023 2.65914 91.9976 2.44255 92.2432 2.2982C92.4889 2.15386 92.7732 2.08877 93.0572 2.11182C93.2752 2.09996 93.493 2.13635 93.6953 2.21839C93.8976 2.30043 94.0793 2.42611 94.2274 2.58644C94.3755 2.74678 94.4864 2.93783 94.5522 3.14597C94.618 3.3541 94.637 3.57419 94.608 3.79053V6.69776H93.7184V4.00976C93.7184 3.29052 93.3834 2.92626 92.7555 2.92626C92.6028 2.91374 92.4492 2.93473 92.3054 2.98779C92.1616 3.04084 92.0312 3.12467 91.9232 3.23341C91.8152 3.34214 91.7322 3.47316 91.6802 3.6173C91.6281 3.76144 91.6082 3.91521 91.6217 4.06786V6.69774H90.7331L90.733 0.437012Z" fill="white"/>
<path d="M99.7897 5.48194C99.669 5.89348 99.4074 6.24947 99.0507 6.48762C98.694 6.72577 98.2649 6.83092 97.8385 6.78467C97.5419 6.79251 97.2471 6.73568 96.9746 6.61816C96.7021 6.50063 96.4584 6.32521 96.2605 6.10407C96.0626 5.88293 95.9152 5.62137 95.8285 5.33755C95.7418 5.05373 95.7179 4.75444 95.7585 4.46046C95.719 4.16558 95.7433 3.86565 95.8298 3.58097C95.9162 3.2963 96.0629 3.03353 96.2598 2.81046C96.4566 2.58739 96.6991 2.40922 96.9708 2.28801C97.2425 2.1668 97.5371 2.10539 97.8346 2.10792C99.0876 2.10792 99.8434 2.96392 99.8434 4.37792V4.68801H96.6637V4.73781C96.6498 4.90306 96.6706 5.06939 96.7247 5.22614C96.7788 5.38289 96.8651 5.5266 96.978 5.64806C97.0909 5.76951 97.228 5.86603 97.3804 5.93143C97.5328 5.99683 97.6971 6.02966 97.8629 6.02781C98.0755 6.05333 98.2909 6.01506 98.4816 5.91785C98.6724 5.82064 98.8299 5.6689 98.9342 5.48191L99.7897 5.48194ZM96.6637 4.03077H98.9381C98.9493 3.87965 98.9288 3.72785 98.8778 3.58513C98.8269 3.44241 98.7466 3.31193 98.6422 3.20207C98.5378 3.09222 98.4116 3.00541 98.2717 2.94724C98.1318 2.88906 97.9812 2.8608 97.8297 2.86427C97.676 2.86234 97.5235 2.8912 97.3811 2.94915C97.2387 3.00709 97.1094 3.09295 97.0008 3.20166C96.8921 3.31038 96.8063 3.43974 96.7484 3.58214C96.6905 3.72453 96.6617 3.87708 96.6637 4.03077H96.6637Z" fill="white"/>
</svg>
