<svg width="117" height="29" viewBox="0 0 117 29" fill="none" xmlns="http://www.w3.org/2000/svg">
<path d="M38.4184 4.24329C38.4366 4.61024 38.3799 4.97704 38.2518 5.32138C38.1237 5.66571 37.9268 5.98037 37.6732 6.24619C37.389 6.54096 37.0457 6.77239 36.6659 6.92536C36.2861 7.07834 35.8783 7.14939 35.4691 7.13389C35.0573 7.13758 34.649 7.05892 34.268 6.90252C33.8871 6.74613 33.5412 6.51517 33.2508 6.22321C32.9604 5.93124 32.7313 5.58418 32.5769 5.2024C32.4226 4.82063 32.3461 4.41185 32.352 4.00009C32.3462 3.58833 32.4227 3.17955 32.577 2.79776C32.7314 2.41598 32.9605 2.0689 33.2509 1.77691C33.5413 1.48492 33.8871 1.2539 34.268 1.09744C34.649 0.940976 35.0573 0.862218 35.4691 0.865793C35.8925 0.864514 36.3116 0.950112 36.7006 1.11729C37.0619 1.26373 37.3834 1.49344 37.6391 1.78769L37.1117 2.31549C36.9107 2.07894 36.6581 1.89173 36.3733 1.7683C36.0885 1.64487 35.7791 1.58851 35.4691 1.60359C35.157 1.60198 34.8478 1.66337 34.56 1.78408C34.2722 1.90479 34.0118 2.08234 33.7942 2.3061C33.5767 2.52986 33.4065 2.79523 33.2939 3.0863C33.1814 3.37738 33.1287 3.68818 33.1391 4.00009C33.1317 4.46729 33.2631 4.92617 33.5168 5.31856C33.7705 5.71094 34.135 6.01915 34.5641 6.2041C34.9932 6.38905 35.4676 6.44241 35.927 6.35742C36.3865 6.27242 36.8104 6.0529 37.1449 5.72669C37.4528 5.39493 37.6313 4.96361 37.6478 4.51129H35.4691V3.79059H38.3764C38.4039 3.93994 38.4179 4.09144 38.4184 4.24329Z" fill="white" stroke="white" stroke-width="0.2" stroke-miterlimit="10"/>
<path d="M43.0277 1.73739H40.2953V3.63969H42.7592V4.36049H40.2953V6.26279H43.0277V7.00009H39.5248V1.00009H43.0277V1.73739Z" fill="white" stroke="white" stroke-width="0.2" stroke-miterlimit="10"/>
<path d="M46.2787 7.00009H45.5072V1.73739H43.8314V1.00009H47.9545V1.73739H46.2787V7.00009Z" fill="white" stroke="white" stroke-width="0.2" stroke-miterlimit="10"/>
<path d="M50.9379 7.00009V1.00009H51.7084V7.00009H50.9379Z" fill="white" stroke="white" stroke-width="0.2" stroke-miterlimit="10"/>
<path d="M55.1284 7.00009H54.3569V1.73739H52.6812V1.00009H56.8042V1.73739H55.1284V7.00009Z" fill="white" stroke="white" stroke-width="0.2" stroke-miterlimit="10"/>
<path d="M64.6093 6.2247C64.0253 6.80695 63.2343 7.1339 62.4096 7.1339C61.5849 7.1339 60.7939 6.80695 60.2099 6.2247C59.921 5.93207 59.6939 5.58434 59.542 5.20217C59.3902 4.82001 59.3168 4.41121 59.3261 4.0001C59.3168 3.58898 59.3902 3.18019 59.542 2.79803C59.6939 2.41586 59.921 2.06813 60.2099 1.7755C60.4986 1.48677 60.8413 1.2578 61.2186 1.1017C61.5958 0.9456 62.0002 0.865438 62.4085 0.8658C62.8167 0.866162 63.2209 0.947042 63.5979 1.10381C63.9749 1.26058 64.3173 1.49015 64.6054 1.7794C64.8945 2.07126 65.1221 2.41821 65.2746 2.79968C65.4271 3.18115 65.5014 3.58936 65.4931 4.0001C65.5022 4.41118 65.4286 4.8199 65.2768 5.20203C65.125 5.58416 64.898 5.93192 64.6093 6.2247ZM60.7792 5.7223C61.2117 6.15409 61.7979 6.39661 62.4091 6.39661C63.0203 6.39661 63.6065 6.15409 64.039 5.7223C64.2608 5.49522 64.4343 5.22553 64.5489 4.92952C64.6635 4.63351 64.717 4.31734 64.706 4.0001C64.717 3.68286 64.6635 3.36668 64.5489 3.07068C64.4343 2.77467 64.2608 2.50498 64.039 2.2779C63.6065 1.84611 63.0203 1.60359 62.4091 1.60359C61.7979 1.60359 61.2117 1.84611 60.7792 2.2779C60.5577 2.50516 60.3845 2.77491 60.2701 3.07088C60.1556 3.36686 60.1022 3.68295 60.1132 4.0001C60.1022 4.31725 60.1556 4.63334 60.2701 4.92931C60.3845 5.22529 60.5577 5.49504 60.7792 5.7223Z" fill="white" stroke="white" stroke-width="0.2" stroke-miterlimit="10"/>
<path d="M66.5751 7.00009V1.00009H67.5136L70.4296 5.66759H70.4628L70.4296 4.51129V1.00009H71.2011V7.00009H70.3964L67.3456 2.10649H67.3124L67.3456 3.26279V7.00009H66.5751Z" fill="white" stroke="white" stroke-width="0.2" stroke-miterlimit="10"/>
<path d="M59.1359 15.7517C58.2954 15.7549 57.4746 16.007 56.7773 16.4763C56.08 16.9456 55.5374 17.611 55.2179 18.3884C54.8985 19.1659 54.8166 20.0205 54.9825 20.8445C55.1484 21.6685 55.5548 22.4248 56.1503 23.018C56.7457 23.6112 57.5036 24.0147 58.3282 24.1775C59.1528 24.3403 60.0071 24.2551 60.7834 23.9327C61.5596 23.6103 62.2229 23.0652 62.6895 22.3661C63.1561 21.667 63.4052 20.8453 63.4052 20.0048C63.4134 19.4426 63.3085 18.8845 63.0967 18.3637C62.8849 17.8429 62.5704 17.37 62.1721 16.9732C61.7738 16.5764 61.2997 16.2638 60.7781 16.0539C60.2565 15.8441 59.698 15.7413 59.1359 15.7517ZM59.1359 22.5825C58.6182 22.6194 58.1015 22.4996 57.6529 22.2387C57.2043 21.9778 56.8447 21.5879 56.6208 21.1198C56.3969 20.6516 56.3191 20.1269 56.3976 19.6139C56.4761 19.101 56.7072 18.6235 57.0609 18.2438C57.4145 17.864 57.8743 17.5995 58.3804 17.4847C58.8865 17.3699 59.4154 17.4101 59.8983 17.6001C60.3812 17.7902 60.7957 18.1212 61.0879 18.5501C61.38 18.979 61.5363 19.4859 61.5363 20.0048C61.552 20.3326 61.5019 20.6603 61.3891 20.9685C61.2763 21.2767 61.1029 21.5593 60.8792 21.7994C60.6555 22.0396 60.3861 22.2327 60.0867 22.3671C59.7873 22.5016 59.464 22.5749 59.1359 22.5825ZM49.8225 15.7517C48.982 15.7549 48.1612 16.007 47.4639 16.4763C46.7666 16.9455 46.2239 17.6109 45.9045 18.3884C45.585 19.1658 45.5031 20.0205 45.669 20.8444C45.8349 21.6684 46.2413 22.4248 46.8367 23.018C47.4322 23.6112 48.1901 24.0147 49.0147 24.1775C49.8393 24.3403 50.6936 24.2551 51.4698 23.9327C52.2461 23.6103 52.9094 23.0652 53.376 22.3661C53.8426 21.667 54.0917 20.8453 54.0917 20.0048C54.0999 19.4426 53.995 18.8845 53.7832 18.3637C53.5714 17.8429 53.257 17.3701 52.8586 16.9733C52.4603 16.5765 51.9863 16.2638 51.4647 16.054C50.9431 15.8441 50.3846 15.7413 49.8225 15.7517ZM49.8225 22.5825C49.3048 22.6194 48.7881 22.4996 48.3395 22.2387C47.8909 21.9778 47.5313 21.5879 47.3074 21.1198C47.0835 20.6516 47.0057 20.1269 47.0842 19.6139C47.1627 19.101 47.3938 18.6235 47.7475 18.2438C48.1011 17.864 48.5609 17.5995 49.067 17.4847C49.5731 17.3699 50.102 17.4101 50.5849 17.6001C51.0678 17.7902 51.4823 18.1212 51.7745 18.5501C52.0666 18.979 52.2229 19.4859 52.2229 20.0048C52.2386 20.3326 52.1886 20.6603 52.0757 20.9685C51.9629 21.2767 51.7895 21.5593 51.5658 21.7995C51.3422 22.0397 51.0727 22.2327 50.7733 22.3672C50.4739 22.5016 50.1506 22.5749 49.8225 22.5825ZM38.7437 17.0567V18.861H43.0614C42.9991 19.7073 42.6528 20.5078 42.0786 21.1326C41.6459 21.5736 41.1256 21.9191 40.5511 22.1466C39.9767 22.3741 39.361 22.4787 38.7437 22.4536C37.4816 22.4365 36.2771 21.9232 35.3907 21.0247C34.5043 20.1262 34.0073 18.9148 34.0073 17.6527C34.0073 16.3906 34.5043 15.1792 35.3907 14.2807C36.2771 13.3822 37.4816 12.8689 38.7437 12.8518C39.9559 12.836 41.1254 13.2991 41.9981 14.1406L43.2708 12.8679C42.6753 12.2784 41.9682 11.8137 41.1908 11.5011C40.4134 11.1885 39.5814 11.0343 38.7437 11.0474C37.8682 11.0347 36.9988 11.1961 36.1863 11.5223C35.3737 11.8485 34.6341 12.3331 34.0105 12.9477C33.3868 13.5623 32.8916 14.2948 32.5536 15.1025C32.2156 15.9102 32.0415 16.7771 32.0415 17.6527C32.0415 18.5283 32.2156 19.3952 32.5536 20.2029C32.8916 21.0106 33.3868 21.7431 34.0105 22.3577C34.6341 22.9724 35.3737 23.4569 36.1863 23.7831C36.9988 24.1093 37.8682 24.2708 38.7437 24.258C39.5991 24.2935 40.4524 24.1466 41.2467 23.8272C42.0411 23.5078 42.7585 23.0231 43.3513 22.4053C44.4037 21.2566 44.9646 19.7415 44.9141 18.1844C44.9182 17.8063 44.8858 17.4286 44.8173 17.0567H38.7437ZM84.052 18.4582C83.7964 17.6878 83.3098 17.0148 82.6584 16.5306C82.007 16.0464 81.2223 15.7744 80.411 15.7517C79.8645 15.7551 79.3244 15.8693 78.8233 16.0873C78.3222 16.3053 77.8705 16.6227 77.4956 17.0203C77.1206 17.4178 76.8302 17.8873 76.6418 18.4002C76.4534 18.9132 76.371 19.4591 76.3996 20.0048C76.3873 20.564 76.4878 21.1199 76.6951 21.6394C76.9025 22.1588 77.2124 22.6312 77.6064 23.0282C78.0004 23.4252 78.4703 23.7387 78.9882 23.95C79.5061 24.1613 80.0612 24.2661 80.6205 24.258C81.3211 24.2619 82.0118 24.0917 82.6304 23.7627C83.249 23.4337 83.7762 22.9562 84.1647 22.3731L82.7148 21.4065C82.4976 21.7672 82.1903 22.0653 81.8231 22.2715C81.456 22.4776 81.0415 22.5848 80.6205 22.5825C80.1872 22.5991 79.7589 22.4851 79.3912 22.2553C79.0234 22.0254 78.7333 21.6904 78.5583 21.2937L84.2454 18.9416L84.052 18.4582ZM78.2523 19.876C78.2322 19.5664 78.2742 19.256 78.3755 18.9628C78.4769 18.6697 78.6358 18.3997 78.8428 18.1687C79.0498 17.9376 79.3008 17.7502 79.5812 17.6174C79.8615 17.4845 80.1655 17.4089 80.4754 17.395C80.7981 17.3738 81.1198 17.448 81.4006 17.6084C81.6814 17.7689 81.9087 18.0084 82.0543 18.2972L78.2523 19.876ZM73.6285 24.0002H75.4973V11.4986H73.6285V24.0002ZM70.5675 16.7022H70.5031C70.2189 16.3935 69.8722 16.149 69.486 15.9851C69.0998 15.8212 68.6831 15.7416 68.2637 15.7517C67.167 15.7984 66.1307 16.2669 65.3712 17.0594C64.6117 17.8519 64.1877 18.9072 64.1877 20.0049C64.1877 21.1025 64.6117 22.1578 65.3712 22.9503C66.1307 23.7428 67.167 24.2113 68.2637 24.258C68.6847 24.2692 69.1032 24.1885 69.4899 24.0216C69.8767 23.8547 70.2224 23.6055 70.5031 23.2914H70.5675V23.9036C70.5675 25.5308 69.6976 26.4007 68.2959 26.4007C67.8287 26.3895 67.3755 26.2395 66.9939 25.9698C66.6124 25.7001 66.3197 25.3229 66.1533 24.8863L64.5261 25.563C64.8328 26.3097 65.3554 26.9478 66.027 27.3955C66.6987 27.8433 67.4887 28.0803 68.2959 28.0762C70.487 28.0762 72.3397 26.7874 72.3397 23.6458V16.0094H70.5675V16.7022ZM68.4249 22.5825C67.7789 22.5277 67.1771 22.2324 66.7385 21.7551C66.2999 21.2777 66.0565 20.6531 66.0565 20.0049C66.0565 19.3566 66.2999 18.732 66.7385 18.2546C67.1771 17.7773 67.7789 17.482 68.4249 17.4272C68.7462 17.4429 69.0611 17.5231 69.3508 17.6631C69.6405 17.8031 69.899 18 70.111 18.242C70.323 18.4841 70.4841 18.7663 70.5846 19.0719C70.6852 19.3776 70.7232 19.7003 70.6964 20.0209C70.7215 20.3395 70.6821 20.66 70.5805 20.963C70.479 21.2661 70.3173 21.5455 70.1053 21.7847C69.8932 22.0238 69.6351 22.2177 69.3464 22.3548C69.0576 22.4919 68.7442 22.5693 68.4249 22.5825ZM92.8059 11.4988H88.3347V24.0002H90.2004V19.2638H92.8059C93.3336 19.2927 93.8617 19.2138 94.3579 19.0317C94.8541 18.8497 95.308 18.5684 95.6919 18.205C96.0757 17.8417 96.3814 17.4038 96.5904 16.9184C96.7993 16.4329 96.907 15.9099 96.907 15.3813C96.907 14.8528 96.7993 14.3298 96.5904 13.8443C96.3814 13.3588 96.0757 12.921 95.6919 12.5576C95.308 12.1942 94.8541 11.9129 94.3579 11.7309C93.8617 11.5488 93.3336 11.4699 92.8059 11.4988ZM92.8541 17.524H90.2004V13.2387H92.8541C93.1392 13.2328 93.4226 13.2839 93.6877 13.3889C93.9529 13.4939 94.1944 13.6508 94.3981 13.8503C94.6018 14.0499 94.7637 14.2881 94.8742 14.551C94.9847 14.8139 95.0416 15.0962 95.0416 15.3814C95.0416 15.6665 94.9847 15.9488 94.8742 16.2117C94.7637 16.4746 94.6018 16.7128 94.3981 16.9124C94.1944 17.1119 93.9529 17.2688 93.6877 17.3738C93.4226 17.4789 93.1392 17.5299 92.8541 17.524ZM104.386 15.7287C103.705 15.6889 103.027 15.8489 102.436 16.1889C101.844 16.5288 101.365 17.0341 101.056 17.6426L102.713 18.3342C102.877 18.0322 103.126 17.7846 103.429 17.6218C103.732 17.4589 104.075 17.3879 104.418 17.4174C104.891 17.3712 105.364 17.5145 105.731 17.816C106.099 18.1175 106.332 18.5525 106.38 19.0257V19.1544C105.781 18.8361 105.112 18.6704 104.434 18.6719C102.649 18.6719 100.831 19.653 100.831 21.4865C100.849 21.8729 100.944 22.2519 101.11 22.601C101.277 22.9501 101.512 23.2621 101.801 23.5186C102.091 23.7751 102.429 23.9709 102.795 24.0942C103.162 24.2176 103.55 24.266 103.935 24.2367C104.405 24.2644 104.874 24.1656 105.292 23.9506C105.711 23.7356 106.064 23.4123 106.316 23.0144H106.38V23.9794H108.181V19.1866C108.181 16.9671 106.525 15.7287 104.386 15.7287ZM104.161 22.5801C103.549 22.5801 102.697 22.2746 102.697 21.5186C102.697 20.5537 103.758 20.1837 104.675 20.1837C105.271 20.1678 105.86 20.3123 106.38 20.6019C106.312 21.1441 106.049 21.6432 105.641 22.0069C105.233 22.3705 104.707 22.5742 104.161 22.5801ZM114.743 16.0021L112.604 21.4221H112.54L110.32 16.0021H108.31L111.639 23.5773L109.741 27.7911H111.687L116.818 16.0021H114.743ZM97.9364 24.0002H99.802V11.4988H97.9364V24.0002Z" fill="white"/>
<path d="M1.43531 1.5381C1.10739 1.93017 0.941819 2.4328 0.972507 2.943V25.0591C0.941729 25.5693 1.10731 26.072 1.43531 26.464L1.50931 26.5361L13.8983 14.1472V13.8549L1.50931 1.4655L1.43531 1.5381Z" fill="url(#paint0_linear_11_246)"/>
<path d="M18.0277 18.2786L13.8983 14.1472V13.8549L18.0287 9.72449L18.1218 9.77759L23.0146 12.5577C24.4122 13.3517 24.4122 14.6509 23.0146 15.4454L18.1218 18.2255L18.0277 18.2786Z" fill="url(#paint1_linear_11_246)"/>
<path d="M18.1218 18.225L13.8983 14.0011L1.4353 26.464C1.72007 26.7152 2.08373 26.8588 2.46326 26.87C2.8428 26.8812 3.2143 26.7593 3.5134 26.5254L18.1218 18.225Z" fill="url(#paint2_linear_11_246)"/>
<path d="M18.1218 9.77709L3.5134 1.47669C3.2143 1.24278 2.8428 1.12087 2.46326 1.13209C2.08373 1.1433 1.72007 1.28693 1.4353 1.53809L13.8983 14.0011L18.1218 9.77709Z" fill="url(#paint3_linear_11_246)"/>
<path opacity="0.2" d="M18.0287 18.132L3.5134 26.3793C3.22582 26.5982 2.87482 26.7177 2.51339 26.7196C2.15196 26.7215 1.79971 26.6058 1.5098 26.39L1.4353 26.4645L1.5093 26.5366L1.5098 26.5361C1.79966 26.7521 2.15193 26.8678 2.51339 26.8659C2.87485 26.864 3.22587 26.7444 3.5134 26.5254L18.1218 18.225L18.0287 18.132Z" fill="black"/>
<path opacity="0.12" d="M1.43528 26.3184C1.1074 25.9263 0.941831 25.4237 0.972484 24.9135V25.0596C0.941813 25.5698 1.10738 26.0724 1.43528 26.4645L1.50978 26.39L1.43528 26.3184Z" fill="black"/>
<path opacity="0.12" d="M23.0146 15.2988L18.0287 18.132L18.1218 18.225L23.0146 15.4449C23.3024 15.32 23.5515 15.1202 23.7358 14.8663C23.9202 14.6125 24.0331 14.3138 24.0629 14.0015C24.001 14.2843 23.8741 14.5489 23.6921 14.7741C23.5101 14.9993 23.2781 15.1789 23.0146 15.2988Z" fill="black"/>
<path opacity="0.25" d="M3.51343 1.6233L23.0146 12.7033C23.2783 12.8231 23.5103 13.0029 23.6923 13.2282C23.8743 13.4535 24.0012 13.7181 24.0629 14.0011C24.0334 13.6886 23.9205 13.3898 23.7362 13.1359C23.5518 12.8819 23.3026 12.682 23.0146 12.5572L3.51343 1.4772C2.11583 0.683097 0.972534 1.3427 0.972534 2.9435V3.0896C0.972534 1.4889 2.11583 0.829297 3.51343 1.6233Z" fill="white"/>
<defs>
<linearGradient id="paint0_linear_11_246" x1="12.7996" y1="2.70981" x2="-3.98276" y2="19.4922" gradientUnits="userSpaceOnUse">
<stop stop-color="#00A0FF"/>
<stop offset="0.00657" stop-color="#00A1FF"/>
<stop offset="0.2601" stop-color="#00BEFF"/>
<stop offset="0.5122" stop-color="#00D2FF"/>
<stop offset="0.7604" stop-color="#00DFFF"/>
<stop offset="1" stop-color="#00E3FF"/>
</linearGradient>
<linearGradient id="paint1_linear_11_246" x1="24.8343" y1="14.0015" x2="0.637397" y2="14.0015" gradientUnits="userSpaceOnUse">
<stop stop-color="#FFE000"/>
<stop offset="0.4087" stop-color="#FFBD00"/>
<stop offset="0.7754" stop-color="#FFA500"/>
<stop offset="1" stop-color="#FF9C00"/>
</linearGradient>
<linearGradient id="paint2_linear_11_246" x1="15.8269" y1="16.2962" x2="-6.93143" y2="39.0545" gradientUnits="userSpaceOnUse">
<stop stop-color="#FF3A44"/>
<stop offset="1" stop-color="#C31162"/>
</linearGradient>
<linearGradient id="paint3_linear_11_246" x1="-1.70277" y1="-5.82373" x2="8.45975" y2="4.33879" gradientUnits="userSpaceOnUse">
<stop stop-color="#32A071"/>
<stop offset="0.0685" stop-color="#2DA771"/>
<stop offset="0.4762" stop-color="#15CF74"/>
<stop offset="0.8009" stop-color="#06E775"/>
<stop offset="1" stop-color="#00F076"/>
</linearGradient>
</defs>
</svg>
